<?xml version="1.0" standalone="no"?>
<!DOCTYPE svg PUBLIC "-//W3C//DTD SVG 20010904//EN"
 "http://www.w3.org/TR/2001/REC-SVG-20010904/DTD/svg10.dtd">
<svg version="1.0" xmlns="http://www.w3.org/2000/svg"
 width="500.000000pt" height="500.000000pt" viewBox="0 0 500.000000 500.000000"
 preserveAspectRatio="xMidYMid meet">

<g transform="translate(0.000000,500.000000) scale(0.100000,-0.100000)"
fill="#ffffff" stroke="none">
<path d="M2825 4139 c8 -63 35 -438 35 -476 l0 -33 -367 0 c-298 0 -403 -4
-562 -20 -490 -51 -668 -122 -748 -296 -34 -76 -72 -230 -90 -374 -20 -152
-22 -690 -4 -845 25 -211 66 -365 124 -458 95 -155 407 -235 1002 -258 143 -5
267 -10 275 -11 8 0 132 4 275 10 478 20 771 75 919 174 109 71 175 247 208
553 16 153 15 639 -2 804 -14 142 -57 325 -93 404 -47 104 -125 162 -284 216
-74 25 -238 58 -328 66 -135 12 -136 -1 5 143 118 121 172 193 158 208 -14 13
-86 -43 -202 -155 -65 -64 -117 -111 -115 -106 2 6 50 100 106 211 l101 201
-196 38 c-108 21 -203 40 -209 42 -10 4 -12 -6 -8 -38z m180 -818 c186 -18
337 -43 394 -64 85 -31 133 -87 165 -188 41 -131 56 -282 56 -548 0 -263 -18
-471 -49 -572 -52 -166 -141 -216 -451 -253 -384 -46 -847 -46 -1250 0 -401
45 -462 113 -495 551 -19 242 -19 369 0 551 26 247 67 357 156 422 82 59 216
84 624 114 97 7 741 -3 850 -13z"/>
<path d="M1815 2899 c-174 -60 -285 -215 -285 -399 0 -319 334 -514 622 -363
125 65 202 184 217 330 4 43 14 89 20 101 19 35 71 62 120 62 37 0 49 -6 82
-39 35 -35 39 -44 39 -89 0 -106 55 -226 138 -304 244 -228 642 -96 702 233
37 203 -88 407 -288 469 -176 55 -366 -10 -471 -160 -23 -32 -41 -61 -41 -63
0 -3 -5 -18 -10 -32 l-10 -27 -31 26 c-61 52 -137 55 -217 9 -24 -14 -45 -23
-47 -21 -1 1 -15 27 -29 56 -93 185 -317 277 -511 211z"/>
</g>
</svg>
